<?xml version="1.0" standalone="no"?>
<!DOCTYPE svg PUBLIC "-//W3C//DTD SVG 20010904//EN"
 "http://www.w3.org/TR/2001/REC-SVG-20010904/DTD/svg10.dtd">
<svg version="1.0" xmlns="http://www.w3.org/2000/svg"
 width="1728.000000pt" height="1920.000000pt" viewBox="0 0 1728.000000 1920.000000"
 preserveAspectRatio="xMidYMid meet">

<g transform="translate(0.000000,1920.000000) scale(0.100000,-0.100000)"
fill="#FFFFFF" stroke="none">
<path d="M14195 19183 c-153 -32 -291 -90 -395 -165 -30 -22 -233 -164 -450
-316 -417 -291 -765 -534 -790 -552 -8 -6 -366 -256 -795 -556 -429 -300 -836
-585 -905 -633 -122 -86 -1155 -809 -1315 -920 -44 -30 -197 -137 -340 -238
-143 -100 -289 -202 -325 -227 -36 -25 -245 -172 -465 -325 -220 -154 -453
-317 -519 -363 -65 -46 -147 -103 -182 -128 -35 -25 -161 -112 -279 -195 -119
-82 -261 -183 -317 -222 -56 -40 -106 -73 -110 -73 -5 0 -59 29 -121 64 -914
518 -1898 694 -2927 521 -564 -95 -1158 -332 -1645 -658 -771 -516 -1342
-1222 -1678 -2078 -235 -599 -346 -1283 -308 -1904 47 -760 240 -1398 624
-2060 73 -126 174 -275 185 -275 4 0 22 44 41 98 41 119 104 266 184 435 l60
128 -86 177 c-97 199 -116 244 -181 424 -103 286 -170 578 -211 928 -14 113
-13 639 1 775 125 1225 799 2301 1838 2932 371 226 777 384 1201 468 214 42
294 52 527 65 722 42 1467 -141 2096 -514 218 -129 346 -159 525 -121 105 22
179 61 340 178 18 13 183 128 367 257 184 128 371 259 415 290 44 31 224 157
400 280 176 123 379 264 450 315 72 50 159 112 195 136 36 25 133 93 215 151
285 199 1160 812 1335 934 96 67 249 173 340 237 91 64 208 145 260 182 52 36
190 132 305 213 116 82 377 264 580 407 204 142 393 274 420 294 55 38 303
211 431 300 44 31 196 137 337 236 142 99 352 246 468 327 127 89 232 155 262
165 48 17 124 18 956 21 498 1 908 -1 913 -6 4 -4 -40 -199 -98 -432 -58 -234
-166 -672 -240 -975 -74 -302 -139 -566 -144 -586 -8 -27 -23 -44 -67 -75 -32
-21 -88 -60 -124 -86 -37 -27 -77 -48 -89 -48 -13 0 -149 27 -304 61 -301 65
-678 146 -841 180 -180 38 -336 12 -476 -79 -90 -59 -154 -128 -202 -220 -48
-90 -52 -107 -147 -637 -45 -247 -85 -453 -88 -456 -4 -3 -216 54 -472 127
-619 178 -621 178 -768 148 -176 -36 -332 -150 -411 -303 -68 -131 -70 -152
-78 -648 -5 -361 -9 -443 -20 -443 -7 0 -55 11 -106 25 -50 13 -159 42 -242
63 -82 22 -229 61 -325 86 -213 57 -305 66 -416 41 -231 -51 -402 -215 -458
-440 -9 -33 -31 -163 -51 -290 -20 -126 -51 -324 -70 -440 -19 -115 -52 -327
-75 -470 -22 -143 -42 -269 -45 -280 -3 -13 -53 -55 -126 -105 -755 -523 -983
-687 -1039 -747 -56 -60 -117 -166 -135 -238 -20 -80 -21 -174 -4 -320 44
-360 41 -780 -7 -1110 -68 -467 -235 -952 -472 -1370 -76 -134 -245 -383 -344
-506 -463 -578 -1063 -995 -1770 -1233 -203 -68 -481 -129 -743 -162 -163 -21
-609 -25 -770 -6 -544 63 -1011 211 -1473 467 -57 31 -84 42 -87 33 -8 -26
-44 -225 -54 -298 -5 -41 -13 -134 -17 -206 l-7 -131 89 -43 c416 -200 927
-354 1339 -405 28 -3 66 -8 85 -10 254 -31 688 -31 966 0 165 18 424 65 579
105 944 241 1788 797 2390 1574 291 375 535 831 691 1290 230 674 297 1387
199 2112 l-7 51 193 137 c107 75 392 275 633 444 368 257 441 312 448 336 4
17 19 104 33 195 14 92 34 220 44 286 11 66 40 253 66 415 79 500 123 761 129
767 4 4 183 -39 431 -106 75 -20 199 -53 591 -155 274 -72 339 -79 410 -47 48
22 106 86 123 138 10 28 16 209 23 693 6 360 11 656 13 658 1 2 297 -81 656
-185 561 -160 663 -187 719 -186 109 1 203 61 251 159 14 30 58 248 137 689
93 515 120 645 132 645 8 0 256 -52 550 -116 836 -180 760 -166 837 -154 96
16 132 34 320 166 92 65 186 130 208 145 66 45 144 134 175 201 18 39 64 205
119 428 50 201 190 768 312 1260 121 492 223 920 226 950 10 115 -39 203 -140
251 l-62 29 -1180 -1 c-1005 -1 -1190 -3 -1250 -16z"/>
<path d="M3725 11390 c-100 -13 -249 -53 -357 -95 -424 -168 -757 -535 -883
-970 -49 -169 -58 -251 -52 -470 4 -172 9 -215 31 -305 28 -109 78 -244 128
-343 l29 -58 -111 -116 c-518 -543 -855 -1255 -954 -2018 -73 -559 -22 -1116
151 -1659 l29 -89 -111 -111 c-201 -201 -321 -426 -381 -711 -25 -123 -22
-389 6 -520 60 -272 175 -481 374 -681 61 -61 138 -129 171 -151 154 -103 322
-176 497 -215 135 -30 405 -32 540 -5 261 53 487 171 678 353 205 197 340 448
396 739 23 122 23 350 0 470 -97 499 -440 895 -908 1049 -182 60 -421 80 -603
53 -55 -9 -103 -13 -106 -9 -8 8 -41 118 -68 227 -150 597 -114 1285 96 1840
116 307 259 563 450 810 78 100 246 285 259 285 6 0 42 -21 80 -47 128 -86
326 -170 489 -207 256 -59 575 -42 822 45 231 82 412 198 588 380 192 198 312
417 383 697 25 101 27 120 27 342 0 223 -1 240 -27 342 -76 298 -192 503 -407
719 -135 134 -235 207 -393 285 -110 56 -265 107 -385 129 -103 19 -378 28
-478 15z m420 -620 c317 -83 553 -316 646 -640 11 -36 19 -68 19 -72 0 -5 -33
-8 -72 -8 -323 0 -770 -97 -1127 -245 -102 -42 -316 -152 -411 -211 -49 -30
-90 -54 -93 -54 -10 0 -45 106 -61 183 -9 42 -16 122 -16 177 0 455 320 818
785 894 64 10 251 -4 330 -24z m534 -1352 c-27 -53 -123 -160 -194 -217 -204
-164 -478 -232 -725 -181 -94 19 -191 51 -213 70 -11 10 274 150 393 194 221
81 538 150 713 155 36 1 37 0 26 -21z m-1939 -4489 c177 -38 354 -163 461
-327 81 -124 119 -252 119 -407 0 -101 -9 -129 -31 -97 -8 10 -45 45 -84 76
-124 102 -307 287 -418 425 -78 97 -227 321 -227 341 0 13 99 7 180 -11z
m-602 -464 c155 -236 386 -502 592 -679 139 -120 189 -155 237 -168 24 -5 43
-14 43 -19 0 -12 -108 -73 -176 -98 -289 -109 -634 -19 -830 217 -66 80 -137
220 -160 317 -45 196 -3 410 116 585 l42 62 45 -74 c25 -40 66 -104 91 -143z"/>
<path d="M9171 8218 c-49 -101 -120 -234 -156 -297 -36 -62 -65 -115 -65 -117
0 -2 1628 -5 3618 -6 l3617 -3 78 -28 c212 -75 362 -246 402 -460 23 -119 23
-6095 0 -6214 -40 -214 -190 -385 -402 -460 l-78 -28 -6175 0 c-5198 0 -6187
2 -6250 14 -464 85 -1013 382 -1252 678 -94 116 -332 416 -353 444 -11 15
-102 130 -202 256 -237 297 -487 613 -808 1019 -143 181 -290 367 -328 413
-228 285 -280 711 -131 1066 34 79 53 107 331 489 l130 178 -24 77 c-40 127
-90 338 -118 491 -43 235 -26 225 -135 76 -349 -473 -606 -828 -641 -882 -98
-149 -170 -350 -209 -579 -27 -162 -23 -447 9 -605 43 -216 131 -431 238 -583
31 -45 160 -212 288 -372 127 -159 289 -364 360 -455 72 -90 239 -302 373
-470 133 -168 280 -352 326 -410 394 -498 483 -604 576 -694 381 -365 967
-652 1503 -736 119 -18 270 -19 6317 -19 5519 0 6204 1 6274 15 258 50 461
156 637 333 183 183 290 384 339 636 20 106 20 119 20 3218 l0 3112 -24 115
c-73 357 -275 632 -607 828 -50 30 -204 88 -302 115 l-82 22 -3502 2 -3502 3
-90 -182z"/>
<path d="M7608 4839 c-467 -68 -761 -487 -708 -1009 32 -323 177 -553 425
-676 142 -70 221 -87 410 -88 168 -1 216 6 359 51 129 41 186 72 202 109 18
42 20 713 4 761 -6 17 -22 35 -36 42 -17 7 -121 11 -319 11 -337 0 -315 7
-315 -95 0 -99 -11 -95 236 -95 l214 0 -2 -257 -3 -257 -72 -28 c-111 -43
-238 -55 -358 -36 -256 42 -425 211 -490 488 -23 99 -15 341 14 440 35 118 86
206 165 285 117 116 244 165 430 165 141 0 250 -28 394 -102 l117 -59 17 21
c13 16 18 40 18 85 0 78 -24 112 -109 154 -166 83 -399 119 -593 90z"/>
<path d="M9285 4839 c-179 -28 -344 -117 -445 -242 -145 -177 -214 -464 -190
-784 32 -420 198 -654 525 -739 106 -28 361 -25 470 4 207 56 353 173 445 357
76 152 110 318 110 535 0 333 -77 556 -248 715 -52 49 -177 112 -269 136 -90
24 -302 34 -398 18z m346 -218 c209 -80 308 -263 325 -601 14 -281 -47 -502
-174 -629 -95 -96 -211 -141 -362 -141 -372 0 -546 251 -527 754 10 250 58
388 176 507 69 69 145 113 221 129 79 16 277 5 341 -19z"/>
<path d="M4693 4820 c-12 -5 -26 -17 -31 -27 -23 -43 -602 -1661 -602 -1681 0
-32 40 -44 127 -40 48 2 78 9 88 19 8 8 48 111 88 229 l72 215 365 0 365 0 76
-218 c42 -120 82 -224 88 -230 16 -16 168 -22 204 -8 35 13 34 28 -4 132 -34
93 -99 275 -273 759 -65 179 -126 348 -136 375 -11 28 -46 124 -79 215 -89
248 -88 247 -123 259 -37 13 -194 13 -225 1z m257 -663 c82 -234 150 -428 150
-431 0 -3 -135 -6 -300 -6 -165 0 -300 4 -300 8 0 9 11 41 145 427 42 121 93
268 113 327 20 59 37 106 39 104 2 -1 70 -194 153 -429z"/>
<path d="M5870 4818 l-25 -14 0 -838 0 -838 28 -24 28 -24 408 0 c326 0 411 3
419 13 18 21 22 118 7 155 l-14 32 -326 0 -325 0 0 764 c0 581 -3 767 -12 772
-23 14 -162 16 -188 2z"/>
<path d="M14550 4817 l-25 -13 -5 -698 -5 -699 -69 134 c-63 122 -214 399
-401 734 -40 72 -86 155 -102 185 -170 310 -175 318 -230 342 -37 16 -62 19
-144 16 -87 -3 -101 -6 -121 -26 l-23 -23 -3 -833 c-2 -754 -1 -835 14 -847
22 -18 124 -24 168 -9 l36 12 0 731 0 732 68 -130 c128 -244 684 -1240 713
-1277 41 -51 98 -71 193 -66 62 3 80 7 98 26 l23 23 3 832 3 832 -22 18 c-26
21 -131 23 -169 4z"/>
<path d="M10604 4797 l-29 -25 -3 -835 c-2 -769 -1 -835 14 -848 18 -15 164
-20 197 -7 16 7 17 35 17 389 l0 381 133 -4 c119 -3 137 -6 183 -30 105 -55
141 -114 284 -478 77 -194 102 -248 121 -257 29 -15 147 -17 183 -3 46 17 42
33 -119 425 -98 240 -162 340 -250 395 l-35 21 80 40 c168 84 250 216 250 404
0 215 -121 366 -346 430 -48 14 -116 18 -355 22 l-296 5 -29 -25z m535 -177
c70 -12 145 -46 178 -82 60 -64 84 -198 54 -301 -19 -67 -77 -128 -153 -162
-60 -28 -71 -29 -240 -33 l-178 -4 0 296 0 296 138 0 c75 0 166 -5 201 -10z"/>
<path d="M12103 4796 l-28 -24 0 -822 0 -822 28 -24 28 -24 439 0 c504 0 470
-7 470 91 0 107 32 99 -380 99 l-360 0 0 310 0 310 305 0 c349 0 326 -7 326
97 0 97 14 93 -333 93 l-298 0 0 275 0 275 355 0 c352 0 354 0 366 21 16 30 7
148 -12 160 -8 5 -202 9 -446 9 l-432 0 -28 -24z"/>
<path d="M15009 4803 c-9 -10 -14 -41 -14 -85 0 -102 -10 -98 287 -98 l248 0
0 -765 c0 -720 1 -766 18 -773 31 -13 178 -8 195 7 16 12 17 79 17 772 l0 759
249 0 c276 0 280 1 282 63 3 52 -2 101 -12 120 -9 16 -50 17 -633 17 -568 0
-625 -1 -637 -17z"/>
</g>
</svg>
